<svg width="16" height="14" viewBox="0 0 16 14" fill="none" xmlns="http://www.w3.org/2000/svg">
<g id="icon/arrow/right">
<path id="Vector (Stroke)" d="M2.00016 13.6666C1.86923 13.6659 1.74144 13.6265 1.63274 13.5536C1.52404 13.4806 1.43926 13.3772 1.389 13.2563C1.33875 13.1354 1.32524 13.0023 1.35016 12.8738C1.37509 12.7453 1.43735 12.627 1.52916 12.5336L13.5292 0.533609C13.6552 0.413552 13.8232 0.347537 13.9973 0.349659C14.1714 0.351782 14.3377 0.421874 14.4608 0.544969C14.5839 0.668064 14.654 0.834407 14.6561 1.00848C14.6582 1.18255 14.5922 1.35055 14.4722 1.47661L10.0532 5.89061C10.2917 6.33271 10.3812 6.83997 10.3084 7.33701C10.2356 7.83405 10.0044 8.29435 9.64918 8.6495C9.29391 9.00466 8.83354 9.23571 8.33648 9.30834C7.83941 9.38096 7.33218 9.29127 6.89016 9.05261L2.46716 13.4716C2.34346 13.5959 2.17551 13.666 2.00016 13.6666ZM9.00016 6.94461L7.94416 7.99861H8.00016C8.26537 7.99861 8.51973 7.89325 8.70726 7.70572C8.8948 7.51818 9.00016 7.26383 9.00016 6.99861C9.00016 6.98061 9.00016 6.96161 9.00016 6.94361V6.94461ZM8.00016 11.6666C7.49593 11.6647 6.99385 11.6008 6.50516 11.4766C6.34906 11.4355 6.21315 11.3392 6.12263 11.2056C6.03211 11.072 5.99313 10.91 6.01291 10.7498C6.03269 10.5896 6.10989 10.442 6.2302 10.3344C6.35051 10.2268 6.50576 10.1665 6.66716 10.1646C6.72177 10.1647 6.77617 10.1714 6.82916 10.1846C7.21194 10.2819 7.6052 10.332 8.00016 10.3336C9.59625 10.2166 11.1066 9.566 12.2882 8.48661C12.7719 8.08371 13.2261 7.64658 13.6472 7.17861C13.7052 7.11461 13.7572 7.05561 13.8052 6.99961L13.7942 6.98661C13.7492 6.93461 13.7002 6.87861 13.6482 6.82061C13.2269 6.35315 12.7727 5.91637 12.2892 5.51361C12.1608 5.39847 12.0821 5.2381 12.0694 5.06615C12.0567 4.8942 12.1111 4.72402 12.2212 4.59131C12.3313 4.4586 12.4885 4.37367 12.6598 4.35434C12.8311 4.335 13.0033 4.38277 13.1402 4.48761C13.6743 4.93184 14.1756 5.4141 14.6402 5.93061C14.7862 6.09161 14.9242 6.25261 15.0502 6.40961C15.0982 6.46861 15.1352 6.51461 15.1602 6.54761L15.1762 6.56861L15.1902 6.58661L15.1992 6.59761V6.60261C15.2852 6.71822 15.3317 6.8585 15.3317 7.00261C15.3317 7.14672 15.2852 7.287 15.1992 7.40261L14.6672 6.99961C15.1462 7.35661 15.1992 7.39961 15.2012 7.39961L15.1892 7.41561L15.1592 7.45461C15.1342 7.48661 15.0972 7.53361 15.0492 7.59261C14.9612 7.70061 14.8222 7.86861 14.6392 8.07161C14.1746 8.58812 13.6733 9.07038 13.1392 9.51461C11.7276 10.8064 9.91096 11.5674 8.00016 11.6676V11.6666ZM3.28616 9.66661C3.13101 9.66659 2.98072 9.61249 2.86116 9.51361C2.32667 9.06979 1.82534 8.58751 1.36116 8.07061C1.17716 7.87061 1.03916 7.69961 0.951158 7.59161C0.904158 7.53361 0.867158 7.48661 0.842158 7.45461L0.825158 7.43361L0.812158 7.41561L0.803158 7.40361C0.717272 7.28793 0.670898 7.14768 0.670898 7.00361C0.670898 6.85953 0.717272 6.71929 0.803158 6.60361L1.24016 6.92961L0.800158 6.60161L0.812158 6.58561L0.825158 6.56861L0.842158 6.54661C0.867158 6.51461 0.904158 6.46761 0.952158 6.40861C1.07916 6.25261 1.21716 6.09161 1.36216 5.92961C1.82634 5.41271 2.32767 4.93043 2.86216 4.48661C4.28084 3.20661 6.09278 2.44735 8.00016 2.33361C8.50021 2.33519 8.99821 2.39765 9.48316 2.51961C9.57226 2.53629 9.65702 2.57096 9.73227 2.6215C9.80752 2.67204 9.87168 2.73738 9.92083 2.81355C9.96998 2.88971 10.0031 2.9751 10.0181 3.06448C10.0332 3.15387 10.0299 3.24539 10.0084 3.33345C9.98685 3.42151 9.94763 3.50426 9.89307 3.57665C9.83851 3.64904 9.76978 3.70955 9.69105 3.75449C9.61233 3.79943 9.52527 3.82784 9.43519 3.83801C9.34512 3.84817 9.25392 3.83987 9.16716 3.81361C8.78721 3.71769 8.39702 3.66833 8.00516 3.66661C6.4074 3.78295 4.89527 4.43352 3.71216 5.51361C3.22888 5.91666 2.77474 6.35342 2.35316 6.82061L2.19516 6.99961C2.23516 7.04661 2.27916 7.09961 2.32616 7.14961L2.35216 7.17961C2.7734 7.64748 3.22792 8.08429 3.71216 8.48661C3.81763 8.57425 3.89352 8.69227 3.9295 8.82459C3.96548 8.95692 3.9598 9.09712 3.91324 9.2261C3.86668 9.35508 3.78149 9.46658 3.66928 9.5454C3.55707 9.62423 3.42329 9.66655 3.28616 9.66661ZM1.33316 6.99861L1.32716 7.00461L0.809158 7.39161L1.33416 6.99961L1.33316 6.99861Z" fill="#1F1F39"/>
<path id="Vector 3" d="M5.60039 2.20078L10.4004 7.00078L5.60039 11.8008" stroke="#858597" stroke-width="1.333" stroke-linecap="round" stroke-linejoin="round"/>
</g>
</svg>
